<?xml version="1.0" standalone="no"?>
<!DOCTYPE svg PUBLIC "-//W3C//DTD SVG 20010904//EN"
 "http://www.w3.org/TR/2001/REC-SVG-20010904/DTD/svg10.dtd">
<svg version="1.0" xmlns="http://www.w3.org/2000/svg"
 width="500.000000pt" height="500.000000pt" viewBox="0 0 500.000000 500.000000"
 preserveAspectRatio="xMidYMid meet">

<g transform="translate(0.000000,500.000000) scale(0.100000,-0.100000)"
fill="#000000" stroke="none">
<path d="M1124 3719 c-4 -6 6 -22 23 -35 59 -46 58 -28 58 -754 0 -620 -1
-667 -18 -701 -10 -20 -29 -42 -42 -49 -14 -7 -25 -19 -25 -27 0 -11 98 -13
545 -13 l545 0 0 127 0 127 -29 -45 c-94 -146 -215 -184 -564 -177 l-169 3
-24 28 -24 28 0 370 0 371 238 -4 c162 -3 248 -9 272 -18 53 -19 95 -55 114
-94 9 -20 21 -36 26 -36 6 0 10 69 10 170 0 173 -7 201 -34 138 -17 -42 -51
-73 -100 -93 -48 -20 -202 -34 -383 -35 l-143 0 0 345 0 345 215 0 c227 0 289
-8 371 -46 60 -28 134 -104 166 -168 26 -55 53 -63 45 -13 -3 17 -9 77 -12
132 -4 55 -9 108 -11 118 -5 16 -39 17 -524 17 -372 0 -521 -3 -526 -11z"/>
<path d="M3529 2423 c-155 -263 -287 -484 -292 -490 -7 -9 -62 74 -189 285
-99 163 -184 301 -189 306 -5 6 -9 -58 -9 -161 l0 -171 136 -226 c109 -181
141 -226 158 -226 17 0 74 90 306 482 l285 482 3 -144 c1 -80 1 -365 0 -635
-3 -448 -5 -493 -21 -526 -10 -20 -29 -42 -42 -49 -14 -7 -25 -19 -25 -27 0
-10 38 -13 185 -13 148 0 185 3 185 13 0 8 -11 19 -25 25 -13 6 -32 26 -42 44
-17 31 -18 78 -21 652 -2 530 0 627 13 678 18 72 44 112 85 130 17 7 30 21 30
30 0 16 -12 18 -124 18 l-124 0 -283 -477z"/>
<path d="M2512 2823 c-11 -4 -42 -54 -42 -67 0 -2 13 9 29 25 32 31 82 39 124
18 21 -10 21 -9 -2 10 -22 20 -77 27 -109 14z"/>
<path d="M2650 2710 c0 -7 -8 -22 -17 -32 -15 -17 -15 -18 0 -13 17 7 33 42
23 52 -3 4 -6 0 -6 -7z"/>
<path d="M2470 2693 c0 -15 18 -35 27 -32 5 2 1 12 -9 22 -10 9 -18 14 -18 10z"/>
<path d="M2470 2570 c0 -12 17 -15 95 -15 78 0 95 3 95 15 0 12 -17 15 -95 15
-78 0 -95 -3 -95 -15z"/>
<path d="M2646 2465 c4 -8 8 -15 10 -15 2 0 4 7 4 15 0 8 -4 15 -10 15 -5 0
-7 -7 -4 -15z"/>
<path d="M2470 2413 c0 -10 26 -13 95 -13 69 0 95 3 95 13 0 9 -26 12 -95 12
-69 0 -95 -3 -95 -12z"/>
<path d="M2645 2360 c-3 -5 -1 -10 4 -10 6 0 11 5 11 10 0 6 -2 10 -4 10 -3 0
-8 -4 -11 -10z"/>
<path d="M2645 2290 c-4 -6 -29 -22 -57 -36 -38 -19 -59 -24 -84 -19 -27 5
-34 3 -34 -10 0 -26 84 -20 128 10 20 14 42 25 49 25 7 0 13 9 13 20 0 22 -5
26 -15 10z"/>
<path d="M2645 2160 c3 -5 8 -10 11 -10 2 0 4 5 4 10 0 6 -5 10 -11 10 -5 0
-7 -4 -4 -10z"/>
</g>
</svg>
