<?xml version="1.0" standalone="no"?>
<!DOCTYPE svg PUBLIC "-//W3C//DTD SVG 20010904//EN"
 "http://www.w3.org/TR/2001/REC-SVG-20010904/DTD/svg10.dtd">
<svg version="1.0" xmlns="http://www.w3.org/2000/svg"
 width="500.000000pt" height="500.000000pt" viewBox="0 0 500.000000 500.000000"
 preserveAspectRatio="xMidYMid meet">

<g transform="translate(0.000000,500.000000) scale(0.100000,-0.100000)"
fill="#000000" stroke="none">
<path d="M0 2500 l0 -2500 2500 0 2500 0 0 2500 0 2500 -2500 0 -2500 0 0
-2500z m2181 1160 c20 -212 21 -230 5 -230 -8 0 -25 21 -38 46 -33 66 -88 125
-147 157 -82 45 -162 57 -393 57 l-208 0 0 -341 0 -341 238 4 c296 5 335 17
383 111 11 20 26 37 34 37 13 0 15 -27 15 -170 0 -155 -2 -170 -17 -170 -11 1
-26 17 -38 43 -40 84 -130 107 -422 107 l-193 0 0 -370 0 -371 25 -25 26 -26
252 4 c231 3 257 5 307 26 69 27 121 70 166 136 l34 51 0 -128 0 -127 -545 0
c-458 0 -545 2 -545 14 0 7 11 21 25 30 13 9 33 31 42 49 17 30 18 80 18 697
0 645 -1 666 -20 705 -11 22 -30 44 -42 50 -13 5 -23 18 -23 27 0 17 28 18
528 16 l527 -3 6 -65z m1886 -777 c3 -7 -11 -20 -30 -29 -47 -23 -83 -83 -97
-162 -7 -46 -10 -256 -8 -662 3 -647 3 -647 59 -676 16 -8 29 -21 29 -29 0
-13 -29 -15 -185 -15 -151 0 -185 3 -185 14 0 7 11 21 25 30 13 9 33 31 42 49
17 29 18 81 21 667 2 539 1 632 -11 615 -8 -11 -137 -228 -287 -482 -232 -394
-277 -463 -296 -463 -19 0 -46 38 -158 224 l-136 224 2 176 3 176 185 -305
c101 -168 187 -305 190 -305 3 0 41 62 86 138 45 75 174 294 288 485 l207 348
126 -3 c89 -2 128 -7 130 -15z m-1436 -82 c22 -23 29 -39 29 -69 0 -50 -8 -72
-27 -72 -12 0 -12 3 1 22 17 23 21 75 8 94 -11 17 -48 34 -74 34 -34 0 -86
-35 -91 -62 -4 -20 -4 -20 -6 5 -3 73 103 105 160 48z m-133 -123 c14 -16 14
-18 0 -18 -17 0 -29 21 -27 48 0 14 2 14 6 2 3 -8 12 -23 21 -32z m162 -108
c0 -12 -17 -15 -95 -15 -78 0 -95 3 -95 15 0 12 17 15 95 15 78 0 95 -3 95
-15z m0 -155 c0 -64 -3 -75 -17 -75 -13 0 -14 3 -5 12 7 7 12 20 12 31 0 17
-8 18 -90 15 -80 -3 -90 -1 -90 15 0 15 11 17 90 17 80 0 90 2 90 18 0 10 -5
23 -12 30 -9 9 -8 12 5 12 14 0 17 -11 17 -75z m0 -133 c0 -11 -17 -26 -46
-40 -25 -12 -43 -26 -40 -30 2 -4 -20 -7 -50 -7 -45 0 -54 3 -54 18 0 14 9 17
48 17 36 0 59 7 92 29 25 16 46 30 48 30 1 1 2 -7 2 -17z m-6 -105 c3 4 6 -1
6 -10 0 -14 -4 -14 -35 4 -42 25 -47 36 -6 15 16 -9 31 -12 35 -9z"/>
</g>
</svg>
